<?xml version="1.0" encoding="UTF-8"?>
<svg viewBox="0 0 400 400" xmlns="http://www.w3.org/2000/svg">
 <path d="m95.759 261.61-27.451 16.984 165.04 96.416 159.75-155.46-142.99-53.433-16.748 10.362" fill="none" stroke="#000" stroke-linecap="round" stroke-linejoin="round"/>
 <path d="m277.7 176.51c-100.4 58.922-38.097 45.44-175.99 121.07l87.765 51.806c84.228-22.478 172.04-70.848 165.6-144.16l-59.509-22.106-17.867-6.6162z" fill="none" stroke="#000" stroke-linecap="round" stroke-linejoin="round"/>
 <path d="m68.172 278.57 0.13174 13.217 164.27 99.395c3.2527-1.7531 4.6545-12.087 1.0539-16.181l-165.46-96.431z" fill="none" stroke="#000" stroke-linecap="round" stroke-linejoin="round"/>
 <path d="m393.08 219.63c0.98328 3.0336 2.0298 9.6376-0.83637 12.349l-159.4 158.95c4.2195-4.8286 2.92-10.446 0.79041-16.181l159.45-155.11z" fill="none" stroke="#000" stroke-linecap="round" stroke-linejoin="round"/>
 <path d="m232.03 175.26 17.408-10.623 0.52696-155.84-214.99 68.309s28.455 202.73 30.563 200.57c0.51339-0.52551 11.687-7.5011 28.297-17.753" fill="none" stroke="#000" stroke-linecap="round" stroke-linejoin="round"/>
 <path d="m34.858 76.922c-1.933-1.6073-3.3249-1.836-6.9592-1.2366l215.73-68.324c3.3686-1.1456 5.308-0.09159 6.3095 1.4342" fill="none" stroke="#000" stroke-linecap="round" stroke-linejoin="round"/>
 <path d="m41.128 89.516 205.92-67.659-1.4768 133.18-178.68 107.9-25.765-173.42z" fill="none" stroke="#000" stroke-linecap="round" stroke-linejoin="round"/>
 <path d="m270.3 173.9-178.24 117.98-8.9955-5.0356 179.48-116.03 7.7623 3.0761z" fill="none" stroke="#000" stroke-linecap="round" stroke-linejoin="round"/>
 <path d="m113.88 277.35 19.536-12.778-19.536 12.778z" fill="none" stroke="#000" stroke-linecap="round" stroke-linejoin="round"/>
 <path d="m260.56 282.16 38.784-32.435c2.2226-1.8588 6.9069-2.0881 10.542-0.52131l19.96 9.1452c3.8753 1.6701 5.3564 4.6492 3.2796 6.688l-37.642 33.794c-2.4809 2.4355-7.8448 2.7908-11.975 0.78575l-20.798-10.098c-3.849-1.8684-4.7865-5.1546-2.151-7.3587" fill="none" stroke="#000" stroke-linecap="round" stroke-linejoin="round"/>
 <path d="m156.31 239.62c2.5373-1.9445 8.9412 1.7828 8.5718 4.1279l-8.5718-4.1279z" fill="none" stroke="#000" stroke-linecap="round" stroke-linejoin="round"/>
 <path d="m112.55 278.27 17.521-11.661c-1.4668-3.0068-4.2055-5.1623-8.6034-4.7679l-17.42 11.443c3.0375-2.075 8.9386 2.527 8.502 4.9862z" fill="none" stroke="#000" stroke-linecap="round" stroke-linejoin="round"/>
 <path d="m112.52 278.36-8.4914-5.0635" fill="none" stroke="#000" stroke-linecap="round" stroke-linejoin="round"/>
 <path d="m171.42 229.79-15.15 9.8444c2.6759-2.1202 9.2992 2.1306 8.566 4.1232l14.799-9.7805" fill="none" stroke="#000" stroke-linecap="round" stroke-linejoin="round"/>
 <path d="m179.54 233.99 14.958-9.7486c-1.0326-2.9141-3.5302-4.8029-8.534-3.9474l-15.118 9.8125c3.0321-1.3227 8.2055 0.34843 8.6938 3.8834z" fill="none" stroke="#000" stroke-linecap="round" stroke-linejoin="round"/>
 <path d="m194.44 224.23 13.264-8.8217c-1.7358-2.6903-3.8978-3.8121-8.2464-3.6757l-13.552 8.5819c3.1919-0.74734 7.726 0.34842 8.534 3.9154z" fill="none" stroke="#000" stroke-linecap="round" stroke-linejoin="round"/>
 <path d="m207.75 215.39 11.586-7.719c-1.9915-2.4986-4.2813-3.5564-8.0546-3.5478l-11.874 7.6231c3.3358-0.29988 6.3996 0.65205 8.3422 3.6437z" fill="none" stroke="#000" stroke-linecap="round" stroke-linejoin="round"/>
 <path d="m219.3 207.7 11.73-7.7349c-1.4801-3.4574-4.4091-4.0678-7.7349-3.7716l-12.258 8.0705c2.9682-0.33183 5.6325 0.15666 8.2623 3.436z" fill="none" stroke="#000" stroke-linecap="round" stroke-linejoin="round"/>
 <path d="m221.69 286.68 50.096-40.3c0.60263-0.47932 1.8462-0.48924 2.7912-0.02273l7.6512 3.7625c0.95925 0.47355 1.2554 1.2498 0.66111 1.7408l-49.332 41.46c-0.73949 0.61097-2.1603 0.64191-3.1817 0.0687l-8.2257-4.6169c-1.0045-0.56372-1.2079-1.497-0.45981-2.092" fill="none" stroke="#000" stroke-linecap="round" stroke-linejoin="round"/>
 <path d="m302.88 234.28 5.5045-4.5838c0.5465-0.4551 0.39212-1.0956-0.34857-1.4383l-7.5952-3.5137c-0.78113-0.36136-1.8736-0.2786-2.4468 0.18787l-5.7752 4.6998c-0.58355 0.47488-0.39966 1.1404 0.40955 1.49l7.8659 3.3978c0.76685 0.33126 1.8298 0.22346 2.3858-0.23956" fill="none" stroke="#000" stroke-linecap="round" stroke-linejoin="round"/>
 <path d="m235.3731,272.47703-7.94981-3.85423c-.68381-.33152-1.63568-.28825-2.13579.09686l-5.78558,4.45513c-.50643.38998-.3662.97695.31601,1.31628l7.93177,3.94524c.69779.34708 1.66984.30627 2.1779-.0917l5.80363-4.54616c.50162-.39295.34118-.98238-.35813-1.32142" fill="none" stroke="#000" stroke-linecap="round" stroke-linejoin="round"/>
 <path d="m247.43674,211.44485 7.60801,3.2821c.54937.237.64097.68178.20429.99721l-6.15889,4.44879c-.44231.31949-1.23991.3808-1.78724.13756l-7.57918-3.3683c-.53444-.23751-.60942-.68085-.16921-.99412l6.13007-4.36257c.43465-.30934 1.21564-.37211 1.75215-.14067" fill="none" stroke="#000" stroke-linecap="round" stroke-linejoin="round"/>
 <path d="m211.38791,264.687 9.30851,4.63487c.67742.3373.85727.89117.40086,1.24174l-6.49815,4.99124c-.47109.36185-1.39908.36966-2.0782.01764l-9.32854-4.83535c-.65251-.33823-.79557-.88991-.3232-1.23709l6.5182-4.79075c.45798-.33661 1.34917-.34662 2.00052-.0223" fill="none" stroke="#000" stroke-linecap="round" stroke-linejoin="round"/>
 <path d="m190.80124,251.03544 8.19638,4.46806c.33907.18485.36328.50821.05493.72536l-7.26243,5.11458c-.3076.21663-.83404.24741-1.181.06871l-8.38712-4.31975c-.36459-.18778-.40455-.51868-.08887-.74158l7.45316-5.2629c.31646-.22348.85863-.24672 1.21495-.05248" fill="none" stroke="#000" stroke-linecap="round" stroke-linejoin="round"/>
 <path d="m200.86922,319.47957-9.30662,7.84849c-.47149.3976-1.26656.48069-1.78201.1858l-10.32115-5.90456c-.51376-.29391-.5405-.84615-.06064-1.23773l9.47217-7.72982c.46484-.37933 1.24548-.45247 1.75102-.16446l10.15558,5.78588c.50718.28895.54836.83125.09165,1.2164" fill="none" stroke="#000" stroke-linecap="round" stroke-linejoin="round"/>
 <path d="m227.03328,279.37981-8.55868-4.26516c-.4967-.24753-1.24092-.1813-1.67011.14881l-7.45559,5.73478c-.44632.3433-.40262.82738.09951,1.08504l8.65441,4.4407c.51404.26377 1.28385.19088 1.72454-.16303l7.35989-5.91032c.42356-.34013.35425-.81756-.15397-1.07082" fill="none" stroke="#000" stroke-linecap="round" stroke-linejoin="round"/>
 <path d="m200.87727,244.07429 7.94693,4.28278c.41945.22606.43879.63322.04305.91294l-7.56867,5.34952c-.39889.28195-1.05751.32473-1.47642.09592l-7.93603-4.33478c-.41432-.22632-.42696-.63327-.02863-.91248l7.55776-5.29752c.39518-.277 1.04708-.32 1.46201-.09638" fill="none" stroke="#000" stroke-linecap="round" stroke-linejoin="round"/>
 <path d="m168.98 312.35 17.542-13.429c1.2251-0.93789 2.6871-1.4222 3.2869-1.0924l8.134 4.4736c0.60438 0.33239 0.1397 1.3711-1.0505 2.3356l-17.046 13.814c-1.3378 1.0841-2.9396 1.6726-3.5809 1.3115l-8.6295-4.8584c-0.63609-0.35813-0.03162-1.5009 1.3447-2.5545" fill="none" stroke="#000" stroke-linecap="round" stroke-linejoin="round"/>
 <path d="m192.51 290.87-9.2355-4.9212c-0.72831-0.38809-1.7305-0.38656-2.2495 0.00342l-6.5862 4.9486c-0.53461 0.40166-0.37747 1.0485 0.35482 1.4502l9.2884 5.0959c0.75364 0.41346 1.7894 0.41144 2.3199-0.00453l6.5332-5.1233c0.51472-0.40365 0.324-1.05-0.42515-1.4491" fill="none" stroke="#000" stroke-linecap="round" stroke-linejoin="round"/>
 <path d="m185.1382,279.89699-8.50433-4.39478c-.6051-.31269-1.48299-.28833-1.97065.05592l-7.07787,4.99634c-.52312.36925-.44013.93106.18861,1.25819l8.83769,4.59818c.63255.32912 1.54509.28341 2.04362-.10094l6.74456-5.19969c.46463-.35821.34699-.89871-.26163-1.21322" fill="none" stroke="#000" stroke-linecap="round" stroke-linejoin="round"/>
 <path d="m161.12258,272.02905 8.67382,4.58084c.42123.22247.47847.60381.12792.85539l-7.32141,5.25432c-.36174.2596-.99896.28696-1.4283.061l-8.84108-4.65328c-.4307-.22669-.47918-.6156-.10915-.87163l7.48865-5.18189c.35855-.24809.987-.26791 1.40955-.04475" fill="none" stroke="#000" stroke-linecap="round" stroke-linejoin="round"/>
 <path d="m220.2904,303.21609-7.09604,5.96711c-.44992.37833-1.30601.37892-1.91524.00278l-9.27073-5.72366c-.5492-.33907-.63898-.89292-.20492-1.24306l6.85221-5.52728c.42107-.33966 1.21135-.36173 1.77553-.04843l9.51458,5.284c.62467.34693.78024.92219.34461,1.28854" fill="none" stroke="#000" stroke-linecap="round" stroke-linejoin="round"/>
 <path d="m250.18 231.05-7.1523-3.6221c-0.71741-0.36332-1.7405-0.33424-2.2956 0.06674l-5.6702 4.0955c-0.58083 0.41952-0.45513 1.0587 0.28379 1.4315l7.3664 3.716c0.73645 0.37151 1.7808 0.32376 2.3397-0.10537l5.4562-4.1895c0.53425-0.41022 0.38721-1.0307-0.32787-1.3928" fill="none" stroke="#000" stroke-linecap="round" stroke-linejoin="round"/>
 <path d="m241.73896,237.6183-7.64021-3.79319c-.67328-.33427-1.62729-.3064-2.1375.06293l-5.84624,4.23216c-.50687.36693-.36737.92608.31127,1.25323l7.70127,3.71268c.66127.3188 1.59627.28531 2.09788-.07465l5.78519-4.15164c.50485-.36231.38433-.91583-.27166-1.24152" fill="none" stroke="#000" stroke-linecap="round" stroke-linejoin="round"/>
 <path d="m291.06923,231.66501 8.86614,3.79516c.55658.23825.6933.68477.3043,1.00029l-6.44562,5.22833c-.39078.31699-1.14279.36811-1.6839.11553l-8.61928-4.02298c-.5024-.23449-.60276-.66666-.22698-.96979l6.19871-5.00047c.37414-.30181 1.0898-.3673 1.60663-.14607" fill="none" stroke="#000" stroke-linecap="round" stroke-linejoin="round"/>
 <path d="m214.6618,258.17714-8.86857-4.32064c-.49-.23872-1.20924-.20105-1.61459.08411l-7.19537,5.06162c-.41523.29211-.36299.73012.11908.98252l8.72894,4.57022c.51383.26904 1.27015.23915 1.69361-.06749l7.33501-5.31125c.41303-.29908.32372-.74487-.19811-.99909" fill="none" stroke="#000" stroke-linecap="round" stroke-linejoin="round"/>
 <path d="m238.61522,217.71027 7.5896,3.35621c.54493.24097.60055.71327.12359,1.05933l-6.76985,4.91165c-.48928.35496-1.32655.44203-1.87611.19484l-7.65335-3.44243c-.54269-.24409-.58112-.72164-.08729-1.07035l6.83361-4.82543c.48151-.34 1.30157-.42184 1.8398-.18382" fill="none" stroke="#000" stroke-linecap="round" stroke-linejoin="round"/>
 <path d="m228.91723,224.61205 7.70052,3.3376c.55788.24179.6289.70993.15738,1.04976l-6.70736,4.83415c-.48582.35013-1.32851.42899-1.8875.17663l-7.71375-3.48232c-.54201-.24469-.58508-.71517-.09843-1.05474l6.72061-4.68941c.47259-.32976 1.28732-.40625 1.82853-.17167" fill="none" stroke="#000" stroke-linecap="round" stroke-linejoin="round"/>
 <path d="m257.14967,204.40311 8.17656,3.47865c.34841.14822.37977.44897.06947.67479l-7.55471,5.49788c-.33078.24072-.88697.31027-1.24614.15544l-8.42787-3.63328c-.35563-.15331-.36608-.46545-.02434-.69936l7.80599-5.34328c.32067-.21949.85596-.27766 1.20104-.13084" fill="none" stroke="#000" stroke-linecap="round" stroke-linejoin="round"/>
 <path d="m201.8511,271.34651 10.15139,5.18133c.45132.23036.55343.61488.22863.86224l-7.38158,5.62135c-.32919.25069-.95946.26491-1.41283.03181l-10.19734-5.24284c-.45008-.23141-.5455-.61735-.21427-.8653l7.42752-5.55985c.32682-.24465.95043-.25744 1.39848-.02874" fill="none" stroke="#000" stroke-linecap="round" stroke-linejoin="round"/>
 <path d="m219.21667,231.1118 8.20716,3.73481c.41361.18823.4698.54277.12482.79531l-7.09644,5.19501c-.36292.26569-.99513.32138-1.41627.12448l-8.35404-3.90564c-.41195-.19258-.44451-.55473-.07419-.81159l7.24336-5.02422c.35222-.2443.96078-.29238 1.3656-.10816" fill="none" stroke="#000" stroke-linecap="round" stroke-linejoin="round"/>
 <path d="m166.11 294.41-9.0696-4.8848c-0.52398-0.28222-1.5202-0.09691-2.2365 0.41645l-12.547 8.9923c-0.75739 0.5428-0.94511 1.2232-0.41788 1.5244l9.1305 5.2175c0.54488 0.31135 1.5931 0.10775 2.3472-0.45543l12.486-9.3249c0.71244-0.53207 0.84818-1.1941 0.30722-1.4855" fill="none" stroke="#000" stroke-linecap="round" stroke-linejoin="round"/>
 <path d="m151.01455,278.70397 9.36,4.91609c.30837.16196.34835.44512.08902.63479l-8.18616,5.9871c-.26657.19497-.72771.21514-1.03327.04534l-9.27146-5.15217c-.29021-.16128-.31116-.44175-.04757-.62896l8.09764-5.75101c.25662-.18226.69871-.20512.9918-.05118" fill="none" stroke="#000" stroke-linecap="round" stroke-linejoin="round"/>
 <path d="m175.52443,287.1458-8.72567-4.61687c-.6394-.33831-1.54739-.31714-2.03705.04738l-6.66143,4.95922c-.49649.36963-.38288.94524.25597,1.2907l8.71864,4.71477c.65187.3525 1.57785.33292 2.07491-.04404l6.66847-5.05711c.49011-.3717.3585-.94889-.29384-1.29405" fill="none" stroke="#000" stroke-linecap="round" stroke-linejoin="round"/>
 <path d="m201.97097,283.45905-9.18329-4.7162c-.71146-.36538-1.69929-.34465-2.21878.04567l-6.58621,4.94858c-.53412.4013-.40111,1.03493.30217,1.42155l9.08292,4.99312c.75039.41251 1.7948.40407 2.33736-.01994l6.68654-5.22552c.52712-.41195.33756-1.05784-.42071-1.44726" fill="none" stroke="#000" stroke-linecap="round" stroke-linejoin="round"/>
 <path d="m183.21 298.32-9.6511-5.0818c-0.6796-0.35783-2.0777-0.01157-3.1388 0.77799l-15.219 11.325c-1.1115 0.82714-1.4615 1.8009-0.78036 2.1815l9.6765 5.4077c0.69999 0.39119 2.1607 0.01936 3.2708-0.83191l15.194-11.651c1.0589-0.81198 1.3462-1.7602 0.64832-2.1276" fill="none" stroke="#000" stroke-linecap="round" stroke-linejoin="round"/>
 <path d="m181.25173,257.89055 8.27764,4.30353c.40372.20988.44363.59543.08826.86524l-7.59789,5.76871c-.38431.29178-1.03346.35014-1.45408.12992l-8.62318-4.5146c-.41818-.21895-.43028-.62221-.02855-.90329l7.94339-5.55765c.37158-.25997.99293-.30059 1.39441-.09186" fill="none" stroke="#000" stroke-linecap="round" stroke-linejoin="round"/>
 <path d="m207.30074,294.9799-8.70787-4.43907c-.52802-.26916-1.27875-.22332-1.68475.10197l-6.50034,5.20785c-.4051.32456-.31849.81006.19567,1.08943l8.47908,4.60713c.54431.29576 1.32142.26492 1.74078-.0701l6.72914-5.37594c.42032-.3358.30731-.83629-.25171-1.12127" fill="none" stroke="#000" stroke-linecap="round" stroke-linejoin="round"/>
 <path d="m210.32 311.53-6.5723 5.4697c-0.66725 0.5553-1.886 0.61493-2.7357 0.12985l-8.7675-5.0054c-0.90739-0.51804-1.0686-1.3969-0.35818-1.9663l6.9937-5.6053c0.69047-0.5534 1.9438-0.56744 2.8071-0.03566l8.3461 5.1411c0.80928 0.49849 0.93589 1.3317 0.28666 1.872" fill="none" stroke="#000" stroke-linecap="round" stroke-linejoin="round"/>
 <path d="m229.41 295.58-6.366 5.3635c-0.55996 0.47177-1.6247 0.50649-2.3867 0.07685l-8.7917-4.9564c-0.76744-0.43266-0.92376-1.1584-0.35105-1.6264l6.5108-5.3194c0.56003-0.45756 1.6181-0.47996 2.3729-0.05117l8.6468 4.9124c0.74955 0.42584 0.91252 1.1393 0.3649 1.6007" fill="none" stroke="#000" stroke-linecap="round" stroke-linejoin="round"/>
 <path d="m217.05231,287.26056-8.62147-4.35069c-.51554-.26017-1.27073-.20943-1.69511.11444l-7.2265,5.51489c-.45029.34363-.38977.84124.13773,1.11497l8.82481,4.57936c.5402.28033 1.32918.21713 1.76698-.1409l7.02316-5.74353c.41227-.33716.31795-.82233-.2096-1.08854" fill="none" stroke="#000" stroke-linecap="round" stroke-linejoin="round"/>
 <path d="m170.90895,265.27133 8.4176,4.35004c.48258.24941.55129.68245.15337.97116l-7.06058,5.12255c-.40725.29548-1.1273.32857-1.61374.07399l-8.4841-4.43996c-.48105-.25177-.5368-.68826-.12574-.97852l7.12707-5.03264c.4017-.28367 1.1088-.3133 1.58612-.06662" fill="none" stroke="#000" stroke-linecap="round" stroke-linejoin="round"/>
 <path d="m204.55438,265.20903-8.71994-4.46666c-.61798-.31654-1.51411-.28948-2.01076.0611l-7.07872,4.99694c-.51373.36264-.42443.91728.20179,1.2431l8.83766,4.59816c.63506.33042 1.55436.29636 2.05962-.07589l6.96102-5.12843c.48832-.35978.37586-.90741-.25067-1.22832" fill="none" stroke="#000" stroke-linecap="round" stroke-linejoin="round"/>
 <path d="m194.5991,272.5456-8.50432-4.39477c-.60507-.31269-1.48299-.28833-1.97066.05592l-7.07787,4.99633c-.52311.36927-.44009.93108.18862,1.25819l8.83768,4.59819c.63257.32911 1.5451.28342 2.04363-.10093l6.74456-5.19969c.46463-.35822.34699-.89871-.26164-1.21324" fill="none" stroke="#000" stroke-linecap="round" stroke-linejoin="round"/>
 <path d="m284.73208,249.18471 6.91174-5.72645c.28838-.23891.19836-.58094-.20066-.76676l-9.15954-4.26541c-.3781-.17607-.91239-.13359-1.19901.09516l-6.86644,5.48025c-.29581.23609-.2321.57595.14395.76209l9.11422,4.51161c.39725.19664.95784.15633 1.25574-.09049" fill="none" stroke="#000" stroke-linecap="round" stroke-linejoin="round"/>
 <path d="m266.25849,207.11055-8.03553-3.42968c-.35046-.14957.03962-.73946.86921-1.31929l17.36436-12.1368c.7134-.49864 1.55348-.79408 1.88789-.66505l7.65786,2.95488c.34413.1328.06351.65407-.63351,1.17154l-16.98658,12.61119c-.81256.60326-1.76213.96752-2.1237.81321" fill="none" stroke="#000" stroke-linecap="round" stroke-linejoin="round"/>
 <path d="m150.04703,290.88787-8.90327-4.91214c-.43907-.24225-1.16562-.1689-1.62945.16425l-9.31242,6.68888c-.46479.33384-.49001.80098-.0561,1.04759l8.79838,5.00066c.44351.25207 1.17933.18285 1.64934-.15542l9.41732-6.7774c.46904-.33755.48498-.80883.0362-1.05642" fill="none" stroke="#000" stroke-linecap="round" stroke-linejoin="round"/>
 <path d="m308.02082,201.07469-17.76694-6.89592c-1.21745-.47255-2.76171-.45482-3.44341.04885l-11.88242,8.77939c-.71373.52733-.85939.98068.52451,1.36589l6.75543,2.76082c1.09282.44661 1.09065.46973 2.03964-.22179l1.26465-.92155c.27654-.20152 1.10529-.27965 1.99385.10321l9.15262,3.94342c1.00937.28095 1.88621.36648 2.456-.08121l9.52182-7.4813c.54833-.43082.27891-1.05257-.61575-1.39981" fill="none" stroke="#000" stroke-linecap="round" stroke-linejoin="round"/>
 <path d="m263.00018,250.94679-8.47808-3.90799c-.43617-.20105-1.05678-.15228-1.39254.1092l-6.45106,5.02386c-.34156.26602-.26904.64829.16367.85734l8.41225,4.06389c.4507.21773 1.09226.17233 1.43738-.10198l6.51687-5.17978c.33911-.26954.24564-.6552-.20849-.86454" fill="none" stroke="#000" stroke-linecap="round" stroke-linejoin="round"/>
 <path d="m224.63535,250.5847-8.22546-4.05879c-.61287-.30241-1.54206-.23556-2.08349.15054l-7.37837,5.26188c-.55087.39285-.4925.95315.13095,1.25558l8.36713,4.05889c.61519.29841 1.54545.22188 2.08571-.17096l7.23672-5.26195c.53105-.38615.47163-.93674-.13319-1.23519" fill="none" stroke="#000" stroke-linecap="round" stroke-linejoin="round"/>
 <path d="m220.79919,257.76358 8.95421,4.39758c.72431.35572.90544.95705.40399,1.34854l-6.36601,4.9699c-.51696.4036-1.52305.43265-2.25356.06493l-9.02914-4.54513c-.71384-.35935-.86581-.96403-.34287-1.35556l6.44094-4.82234c.50746-.37994 1.48436-.40565 2.19244-.05792" fill="none" stroke="#000" stroke-linecap="round" stroke-linejoin="round"/>
 <path d="m209.90305,237.93879 7.78839,3.58011c.59426.27316.71648.76271.2675,1.09649l-6.47753,4.81545c-.47586.35378-1.32813.38688-1.90423.07567l-7.53324-4.06957c-.50176-.27106-.53405-.74363-.07793-1.06071l6.22267-4.32569c.43227-.3005 1.19446-.35075 1.71437-.11175" fill="none" stroke="#000" stroke-linecap="round" stroke-linejoin="round"/>
 <path d="m300.49 221.42 17.878-14.444c0.83532-0.67485 1.1928-1.3389 0.80516-1.4907l-7.7347-3.0296c-0.36516-0.14303-1.3196 0.26073-2.1434 0.90699l-17.609 13.813c-0.89041 0.69849-1.327 1.4012-0.97503 1.5738l7.4653 3.6602c0.37458 0.18366 1.4082-0.25887 2.3135-0.99024" fill="none" stroke="#000" stroke-linecap="round" stroke-linejoin="round"/>
 <path d="m258.97 224.64-7.1364-3.4028c-0.69304-0.33045-1.6893-0.2823-2.2396 0.10805l-5.6459 4.0048c-0.58095 0.41209-0.49425 1.0316 0.20059 1.3891l7.1625 3.6845c0.74053 0.38094 1.8081 0.33211 2.387-0.10944l5.6196-4.2865c0.54715-0.41735 0.3892-1.0362-0.34782-1.3877" fill="none" stroke="#000" stroke-linecap="round" stroke-linejoin="round"/>
 <path d="m245.03115,264.95865-8.1334-3.9295c-.59947-.28961-1.48109-.21148-1.97754.17545l-6.76484,5.27237c-.50501.3936-.42678.94776.17624,1.24227l8.18189,3.99605c.60818.29703 1.50215.21508 2.00355-.1835l6.71634-5.3389c.49291-.3918.40232-.94215-.20224-1.23424" fill="none" stroke="#000" stroke-linecap="round" stroke-linejoin="round"/>
 <path d="m241.3425,254.88757 5.83591-4.49966c.46229-.35645.25828-.92152-.45622-1.26712l-8.8741-4.29241c-.70503-.34101-1.64731-.3341-2.11395.01564l-5.89029,4.41461c-.47559.35644-.28847.92349.42082,1.27122l8.92849,4.37746c.71894.35247 1.6781.34359 2.14934-.01974" fill="none" stroke="#000" stroke-linecap="round" stroke-linejoin="round"/>
 <path d="m250.1 248.11 5.944-4.7098c0.57422-0.455 0.3694-1.1321-0.45415-1.5199l-8.1166-3.8224c-0.80225-0.3778-1.9271-0.33625-2.5271 0.09479l-6.2079 4.4594c-0.64415 0.4627-0.50083 1.1606 0.32702 1.5629l8.3804 4.0728c0.85082 0.41349 2.0372 0.3511 2.6543-0.13788" fill="none" stroke="#000" stroke-linecap="round" stroke-linejoin="round"/>
 <path d="m270.78129,244.1004-7.61544-3.55042c-.5668-.26425-1.35301-.21933-1.76396.10213l-5.7298,4.48217c-.43772.34238-.31523.83827.27592,1.11026l7.9409,3.65372c.58439.26888 1.38813.20214 1.80089-.14807l5.40439-4.58547c.3877-.32894.24766-.80299-.3129-1.06432" fill="none" stroke="#000" stroke-linecap="round" stroke-linejoin="round"/>
 <path d="m279.36283,237.13131-7.41125-3.33763c-.58165-.26194-1.42977-.1774-1.90376.18943l-5.99253,4.63781c-.48462.37505-.41074.89735.16777,1.17121l7.37349,3.4903c.60112.28456 1.47965.20181 1.96743-.18569l6.03029-4.79049c.47685-.37882.37261-.9029-.23144-1.17494" fill="none" stroke="#000" stroke-linecap="round" stroke-linejoin="round"/>
 <path d="m259.14 241.02 5.8055-4.5172c0.57403-0.44665 0.33291-1.1093-0.53298-1.484l-8.2723-3.579c-0.79271-0.34296-1.8729-0.28164-2.4286 0.13587l-5.6164 4.2196c-0.56926 0.42769-0.40978 1.0694 0.36427 1.4406l8.0831 3.8765c0.84669 0.40603 2.0085 0.36576 2.5973-0.09241" fill="none" stroke="#000" stroke-linecap="round" stroke-linejoin="round"/>
 <path d="m232.79455,261.43519 5.93503-4.5761c.43507-.33544.24302-.86726-.42948-1.19256l-9.02485-4.3653c-.66349-.32094-1.55032-.31444-1.98946.01468l-5.99035,4.48961c-.44766.33552-.27157.86919.39594,1.19646l9.08016,4.45179c.67668.33176 1.57944.32342 2.02301-.01858" fill="none" stroke="#000" stroke-linecap="round" stroke-linejoin="round"/>
 <path d="m254.17375,257.48652-7.84412-3.75537c-.62062-.29713-1.5348-.21394-2.05135.18664l-6.52585,5.0609c-.52739.40899-.45285.98478.16874,1.29088l7.85745,3.86936c.63535.31288 1.57196.22794 2.09833-.19034l6.51251-5.17485c.51541-.40955.41846-.98359-.21571-1.28722" fill="none" stroke="#000" stroke-linecap="round" stroke-linejoin="round"/>
 <path d="m233.04 243.79-7.5503-3.6551c-0.74304-0.35969-1.7935-0.31724-2.358 0.0947l-5.6811 4.1452c-0.57331 0.41831-0.44316 1.0542 0.29469 1.4264l7.4987 3.7822c0.76432 0.38551 1.8479 0.34917 2.4265-0.08205l5.7327-4.2723c0.56962-0.42451 0.40632-1.0666-0.36311-1.439" fill="none" stroke="#000" stroke-linecap="round" stroke-linejoin="round"/>
 <path d="m282.03015,224.70872 5.94725-4.62508c.58779-.45711 1.58381-.5702 2.23528-.25417l6.55329,3.17904c.6611.3207.72612.95398.14372,1.42049l-5.8936,4.72082c-.59812.47911-1.61803.59934-2.28463.26893l-6.60694-3.27477c-.65672-.32553-.69787-.96593-.09437-1.43526" fill="none" stroke="#000" stroke-linecap="round" stroke-linejoin="round"/>
 <path d="m274.59176,213.04701-6.95875-3.16291c-.70251-.31931-1.65024-.29775-2.12511.04962l-4.81209,3.51998c-.48904.35772-.30304.90566.41727,1.22723l7.13386,3.18479c.70857.31634 1.65849.28023 2.12968-.07968l4.63698-3.54187c.45766-.34956.26943-.88295-.42184-1.19716" fill="none" stroke="#000" stroke-linecap="round" stroke-linejoin="round"/>
 <path d="m292.00448,215.55279 4.36192-3.39589c.43262-.33682.1238-.88173-.68827-1.2208l-7.90075-3.29895c-.77094-.32191-1.73305-.32084-2.16103.00151l-4.31378,3.249c-.43604.3284-.17356.86266.59246,1.1988l7.85261,3.44581c.80735.35428 1.81581.36387 2.25684.02052" fill="none" stroke="#000" stroke-linecap="round" stroke-linejoin="round"/>
 <path d="m284.72744,221.17105 4.72715-3.62833c.47141-.36183.2116-.92421-.5828-1.26141l-7.96806-3.38231c-.80152-.34025-1.83198-.32307-2.31017.03901l-4.79522,3.63084c-.48223.36512-.21946.93321.58892,1.2732l8.03613,3.37983c.80118.33695 1.82868.31404 2.30405-.05083" fill="none" stroke="#000" stroke-linecap="round" stroke-linejoin="round"/>
 <path d="m280.70619,208.18882-7.05285-2.79557c-.66067-.26186-1.49042-.25052-1.86859.02353l-3.84925,2.78955c-.39296.28477-.19674.74682.44814,1.03821l6.89581,3.11585c.73981.33427 1.67336.34963 2.08302.03159l4.00606-3.11015c.39292-.30505.09305-.79361-.66234-1.09301" fill="none" stroke="#000" stroke-linecap="round" stroke-linejoin="round"/>
 <path d="m267.13462,218.61017-7.08909-3.21371c-.68865-.31219-1.65432-.27259-2.16945.08794l-5.20112,3.64005c-.52667.3686-.40785.93046.27073,1.26076l6.98818,3.40153c.72179.35133 1.73912.32286 2.27624-.06492l5.30199-3.82792c.52489-.37896.35442-.95194-.37748-1.28373" fill="none" stroke="#000" stroke-linecap="round" stroke-linejoin="round"/>
 <path d="m287.7354,230.25946-6.65224-3.25595c-.67638-.33106-1.67748-.24659-2.24425.1913l-5.74455,4.4381c-.58393.45112-.49018,1.08045.20982,1.40907l6.88255,3.23116c.67866.3186 1.67586.21255 2.23622-.23592l5.51423-4.41331c.5442-.43557.45435-1.04329-.20178-1.36445" fill="none" stroke="#000" stroke-linecap="round" stroke-linejoin="round"/>
 <path d="m267.95 234.14 5.4575-4.1927c0.54186-0.41627 0.31029-1.0379-0.51644-1.3935l-8.1338-3.4984c-0.80258-0.34519-1.8816-0.29678-2.4221 0.10827l-5.4426 4.079c-0.54965 0.41194-0.34952 1.0302 0.45144 1.3866l8.1189 3.6121c0.82532 0.36719 1.9358 0.32212 2.4871-0.10137" fill="none" stroke="#000" stroke-linecap="round" stroke-linejoin="round"/>
 <path d="m276.33 227.66 5.5708-4.306c0.55169-0.42643 0.33313-1.0461-0.48698-1.3893l-8.0655-3.3751c-0.79551-0.3329-1.8782-0.2676-2.4304 0.14631l-5.5753 4.1785c-0.56448 0.42306-0.38069 1.0416 0.4151 1.387l8.07 3.5026c0.82074 0.35622 1.9382 0.29202 2.5023-0.14402" fill="none" stroke="#000" stroke-linecap="round" stroke-linejoin="round"/>
 <path d="m65.088 277.79-8.4471-4.2417-28.759-197.8" fill="none" stroke="#000" stroke-linecap="round" stroke-linejoin="round"/>
 <path d="m92.829 259.35 138.08-84.637c1.7415 1.0689 3.2649 2.2686 3.3241 4.3469l-137.57 84.765c-0.24318-1.9661-1.5468-3.4462-3.8355-4.4748z" fill="none" stroke="#000" stroke-linecap="round" stroke-linejoin="round"/>
</svg>
